<svg xmlns="http://www.w3.org/2000/svg" width="1920" height="1260" viewBox="0 0 1920 1260">
  <defs>
    <style>
      .cls-1 {
        fill-rule: evenodd;
      }
    </style>
  </defs>
  <path id="Color_Fill_1" data-name="Color Fill 1" class="cls-1" d="M0,0H1920V800c-57.67.351-118.67,2.242-168-7-0.67-1.333-1.33-2.667-2-4l12-29c11.33-53.75-40.38-107.62-94-96-17.27,3.743-33.78,11.93-49,18-2.56-1.632-2.42-1.232-4-4-5.12-13.867,4.88-42.787-4-53-11.69-17-103.15-16.668-136-17-65.97-.667-139.77-2-209-2-38.03,0-78-2.385-112,4-40.37,7.581-95.17-8.3-118,16q1.005,51,2,102,7.005,38.5,14,77h-2l-68,1-24-10H933c-35.655,0-56.643,6-88,6-21.711,0-52.881,4.078-64-7,0,0-13.506,10.387-21,9-16.908-3.129-23.989.86-34-10-10.035.205-11.2,4.62-18,6l-15-4-7,6c-14.98,5.3-31.4-7.7-40-5l-10,7s-40.544-10.664-41-11c-5.947,2.751-18.113,10.446-27,9-5.315-.865-12.6-7.013-22-4-8.2,2.628-15.184,6.025-30,6-4.522-6.619-8.963-8.811-16-13-0.633.316-108.652,9.306-110,9l-11-8q-0.5-3-1-6c-7.811,2.277-9.343,9.833-16,12H330a319.816,319.816,0,0,0-52,4c-16.2,2.673-17.454-12.437-36-8-27.212,6.511-69.358,4-103,4L0,800V0ZM1676,690c41.69-1.026,76.55,38.775,55,82-6.37,12.776-22.44,25.038-34,33-11.78-1.135-47.9,1.164-61-3-4.35-1.383-4.81-4.762-11-6-1.96,6.036-4.24,9.561-11,11-3.68-6.18-10.5-4.872-16-9,7.32-6.308,3.69-15.019,2-24,2.51-3.093,2.48-6.092,5-10q7.995-6.5,16-13c11.32-19.834,10.89-43.386,31-54ZM120,1146c0.667,0.67,1.333,1.33,2,2C120.077,1146.61,121.4,1147.9,120,1146Z"/>
</svg>
